<svg width="149" height="189" viewBox="0 0 149 189" fill="none" xmlns="http://www.w3.org/2000/svg">
<path d="M129 188.015L135.497 180.019C135.477 178.4 135.36 175.735 135 175.015C134.6 174.215 128.167 176.015 125 177.015L122 166.015L135 166.515L135.5 152.015L138.5 150.515L141.5 145.515L133 135.515C132.333 135.015 131 133.915 131 133.515C131 133.115 131.333 131.348 131.5 130.515L135 127.015C135.667 125.515 137 122.415 137 122.015C137 121.615 139.333 121.182 140.5 121.015C140.833 119.848 141.5 117.415 141.5 117.015C141.5 116.615 142.5 113.182 143 111.515L146 109.015L147.5 105.515L148 102.015L145 99.5151L143.5 97.5151L142.5 85.5151L137.5 82.0151L139.5 68.0151L137 65.0151L125 73.0151L119 66.5151L126.5 60.5151L123 54.5151H108.5L109.5 43.0151C105.5 41.5151 97.4 38.5151 97 38.5151C96.5 38.5151 95 30.0151 95 29.5151C95 29.1151 85.6667 28.3485 81 28.0151L80 21.0151L84 17.0151L82 15.5151C80.6667 13.8485 78 10.3151 78 9.51514C78 8.71514 74.7299 6.51514 73.0949 5.51514L67.5 2.51514L61.5 1.01514L57.5 0.515137L54.5 2.01514L50.5 2.51514C50 3.34847 48.9 5.11514 48.5 5.51514C48.1 5.91514 40.3333 13.0151 36.5 16.5151C35.8333 17.3485 34.4 19.2151 34 20.0151C33.6 20.8151 33.5 23.0151 33.5 24.0151L35.5 27.0151L38 32.5151L42.5 35.5151V39.5151C41.3333 41.1818 39 44.6151 39 45.0151C39 45.5151 35.5 48.0151 35 48.5151C34.6 48.9151 32.1667 51.0151 31 52.0151L25.5 56.0151L21.5 54.5151C19.6667 53.5151 15.9 51.5151 15.5 51.5151C15.1 51.5151 11 48.5151 9 47.0151L5.5 46.5151V50.5151V55.0151L4 57.0151C4.5 57.6818 5.5 59.1151 5.5 59.5151V63.0151C5.5 63.4151 4.16667 64.5151 3.5 65.0151L4.5 68.0151C4.83333 68.8485 5.5 70.6151 5.5 71.0151V76.0151L7 78.5151V82.5151C6.33333 83.6818 5 86.1151 5 86.5151C5 86.9151 3 90.6818 2 92.5151C1.5 94.3485 0.5 98.1151 0.5 98.5151C0.5 98.9151 1.83333 101.682 2.5 103.015L8.5 104.015H12L18 102.515L39.5 111.015L43.5 115.015L48 120.015L52.5 121.015L55.5 122.515H61H66H70.5L74.5 121.015L78 124.015L79.5 138.015C84.8333 143.515 95.6 154.615 96 155.015C96.4 155.415 100.5 161.848 102.5 165.015L105.5 174.515L111.5 183.015L119.5 185.515L129 188.015Z" fill="#BE1111" fill-opacity="0.5"/>
<path d="M135.5 180.015L129 188.015L119.5 185.515L111.5 183.015L105.5 174.515L102.5 165.015C100.5 161.848 96.4 155.415 96 155.015C95.6 154.615 84.8333 143.515 79.5 138.015L78 124.015L74.5 121.015L70.5 122.515H66H61H55.5L52.5 121.015L48 120.015L43.5 115.015L39.5 111.015L18 102.515L12 104.015H8.5L2.5 103.015C1.83333 101.682 0.5 98.9151 0.5 98.5151C0.5 98.1151 1.5 94.3485 2 92.5151C3 90.6818 5 86.9151 5 86.5151C5 86.1151 6.33333 83.6818 7 82.5151V78.5151L5.5 76.0151C5.5 74.5151 5.5 71.4151 5.5 71.0151C5.5 70.6151 4.83333 68.8485 4.5 68.0151L3.5 65.0151C4.16667 64.5151 5.5 63.4151 5.5 63.0151C5.5 62.5151 5.5 60.0151 5.5 59.5151C5.5 59.1151 4.5 57.6818 4 57.0151L5.5 55.0151V50.5151V46.5151L9 47.0151C11 48.5151 15.1 51.5151 15.5 51.5151C15.9 51.5151 19.6667 53.5151 21.5 54.5151L25.5 56.0151L31 52.0151C32.1667 51.0151 34.6 48.9151 35 48.5151C35.5 48.0151 39 45.5151 39 45.0151C39 44.6151 41.3333 41.1818 42.5 39.5151V35.5151L38 32.5151L35.5 27.0151L33.5 24.0151C33.5 23.0151 33.6 20.8151 34 20.0151C34.4 19.2151 35.8333 17.3485 36.5 16.5151C40.3333 13.0151 48.1 5.91514 48.5 5.51514C48.9 5.11514 50 3.34847 50.5 2.51514L54.5 2.01514L57.5 0.515137L61.5 1.01514L67.5 2.51514L73.0949 5.51514C74.7299 6.51514 78 8.71514 78 9.51514C78 10.3151 80.6667 13.8485 82 15.5151L84 17.0151L80 21.0151L81 28.0151C85.6667 28.3485 95 29.1151 95 29.5151C95 30.0151 96.5 38.5151 97 38.5151C97.4 38.5151 105.5 41.5151 109.5 43.0151L108.5 54.5151H123L126.5 60.5151L119 66.5151L125 73.0151L137 65.0151L139.5 68.0151L137.5 82.0151L142.5 85.5151L143.5 97.5151L145 99.5151L148 102.015L147.5 105.515L146 109.015L143 111.515C142.5 113.182 141.5 116.615 141.5 117.015C141.5 117.415 140.833 119.848 140.5 121.015C139.333 121.182 137 121.615 137 122.015C137 122.415 135.667 125.515 135 127.015L131.5 130.515C131.333 131.348 131 133.115 131 133.515C131 133.915 132.333 135.015 133 135.515L141.5 145.515L138.5 150.515L135.5 152.015L135 166.515L122 166.015L125 177.015C128.167 176.015 134.6 174.215 135 175.015C135.4 175.815 135.5 179.015 135.5 180.515" stroke="black"/>
</svg>
