<svg width="309" height="280" viewBox="0 0 309 280" fill="none" xmlns="http://www.w3.org/2000/svg">
<path d="M36 25.5L32.5 14.5L35.5 13L39 10L41 5.5L43.5 4L48 5.5L54.5 6.5L60.5 7L64 9.5H67.5L70 8L71 5L74 1H76.5C78.5 0.833333 82.6 0.5 83 0.5C83.4 0.5 85.1667 1.16667 86 1.5L89 3.5L93.5 4L94.5 4.5L97.5 8L100.5 11.5H105C105.4 11.5 107.167 9.83333 108 9L111 5L113.5 2.5L117 2L122.5 3.5L129.5 5.5L132 9L137.5 16L146 23L148 29.5L149.5 32.5L149 36L148 38.5L144.5 39.5L138.5 40L135 42.5L133 45.5L134 50L136 52.5L139.5 54.5L141 56.5L142.5 60L146 63L148 66.5L149.5 71L152 74.5L155.5 76.5L160 76L162.5 73.5C162.833 72.1667 163.6 69.5 164 69.5C164.4 69.5 166.167 68.8333 167 68.5L170 69H174.5L178.5 68.5L182.5 69.5L188 72.5L192.5 75.5L196.5 77.5L204 78.5L211 80.5L218.5 85L225 90.5L226 95L249 128.5L250.5 134L256 137L259 139.5L261 143L264.5 145L265.5 150.5L263.5 153.5C263.667 154.5 264 156.6 264 157C264 157.4 265.333 159.167 266 160V166L271 170L279 170.5L284.5 171.5L290 180.5L291 186L295.5 190.5L296.5 194.5L300.5 196L304 199.5L303 205L305.5 209L308 217L298 223.5V224V231.5L291.5 236L288 233H281.5L273.5 226L266 229L259 219.5L253.5 216.5L241 220.5L237.5 219L226.5 229V231.5L216 235.5L214 242.5L200.5 231.5L194 237L186 227L178.5 228L173 219.5L163 220V235L148.5 235.5L141 246.5L135.5 247.5L131.5 258H120.5L118 261L120.5 271L106 278.5L97 275L90 263H87L83.5 266.5L69 261L65.5 265.5H54.5L43 257.5L42 251L37 248.5L38 239L30.5 227L20.5 224.5L19 209L3.5 216.5L0.5 214.5V199.5L3.5 196.5V186.5H4.5H16L18 181L17.5 174.5L15.5 170.5L7.5 167.5L9 154.5L7 147.5L11 143.5L2.5 131.5L7.5 123L14.5 122.5L18 111.5L16.5 108.5L20.5 77.5L31.5 82L35 76.5L30 67L31 63L28.5 59L32.5 44.5L43.5 35L45 29L36 25.5Z" fill="#BE1111" fill-opacity="0.5" stroke="black"/>
</svg>
