<svg width="508" height="405" viewBox="0 0 508 405" fill="none" xmlns="http://www.w3.org/2000/svg">
<path d="M401.5 221.534L404 217.534L408 213.034L409 208.534L411.5 205.534L416.5 203.534L421 199.034L425 197.034H429.5L432.5 199.034L436.5 205.034L441.5 207.534C443 208.534 446.2 210.634 447 211.034C448 211.534 451.5 214.034 452 214.034C452.4 214.034 455.5 218.367 457 220.534H464.5C465.3 220.534 468.5 221.201 470 221.534L475.5 224.034L478 229.534L477 234.534L475 238.534L474 243.534L475.5 248.534L479 249.534L483.5 248.534L490.5 247.034L494.5 247.534L498 248.034L500 253.034V257.534L501.5 260.534L504 262.534V267.534L506 268.034L507 271.534L506.5 274.034L504.5 278.034L503.5 281.534L503 286.534L500.5 289.034L496.5 293.034L494.5 296.034L491 297.034L489 300.534L488 303.034V306.534L489 311.034L489.5 317.034L489 321.534L485.5 325.034L481.5 326.534L478.5 324.034L478 320.034V317.534L475 314.534L472 311.034L469.5 308.534L464.5 307.034H460.5L456 304.034L453.5 303.034L451 301.534L447 302.534L446.5 304.534L446 307.534L447 310.034V313.534V317.534L448.5 319.534L450 323.534L448.5 326.034L445 327.534H442L440.5 328.534L438 329.034L432.5 326.534H428.5L423.5 325.034H418H412L405 326.534L400 328.534L395.5 329.034C394.667 329.201 392.9 329.634 392.5 330.034C392.1 330.434 390.333 331.867 389.5 332.534H387L383 333.534C382.333 333.701 381 334.234 381 335.034C381 335.834 379.667 336.367 379 336.534C378 336.867 375.8 337.634 375 338.034C374.2 338.434 371 338.867 369.5 339.034H366L362.5 343.034L361 346.534C360.333 347.701 358.9 350.234 358.5 351.034C358.1 351.834 356.667 355.367 356 357.034L355 360.534L348.5 368.534L341.5 375.534C340.833 375.201 339.4 374.734 339 375.534C338.6 376.334 335.833 378.867 334.5 380.034H329.5L319.5 381.534L312.5 385.034L311 390.534L313.5 394.534L319.5 399.534L317.5 403.534L314 404.034L307.5 401.534L294.5 389.034H290.5L285 381.534L282 378.034H271L269 372.534L267.5 364.534L264.5 361.034L259.5 359.534L255 356.034L248.5 354.034H239L234.5 352.034H231L223 356.034L218 357.034L210.5 358.534L207.5 357.534L204.5 355.034L202 354.034H198L194.5 352.034L192.5 347.534L189 343.034V340.034L188.5 336.034L187 331.534L184.5 327.534L180.5 325.034H177.5L174.5 328.534C173.667 329.367 171.9 331.234 171.5 332.034C171.1 332.834 166.667 335.701 164.5 337.034C163.667 337.367 161.8 338.134 161 338.534C160.2 338.934 156 339.701 154 340.034L152 338.534L147.5 338.034H139.5L135.5 337.034L131.5 335.034H126L123.5 330.034V327.534L125 327.034H130L134 325.034L135.5 321.534L131.5 316.534L129 311.534L126 310.034L121 305.034L119 302.534H114L108.5 307.534L103 310.034L97 312.034L94.5 313.034L88.5 318.034L86 321.534L82.5 325.034H77.5L73.5 322.534L70 323.034L67 322.534L62.5 318.034V314.534L59.5 313.034H54.5L51.5 310.534L48 309.034L45.5 307.534L43.5 305.034L42 299.534L41.5 296.534L40.5 294.534V289.534V287.034L37 282.534L35 278.534L33.5 273.034V269.034V263.534L33 261.534L30.5 259.034L27 260.034H23.5L21.5 259.534L19.5 255.034L17.5 252.034L15.5 250.034L13 247.034L11 242.534L8 240.534C7.66667 239.534 7 237.434 7 237.034V233.034C6.66667 230.701 6 225.934 6 225.534C6 225.034 5.5 222.034 5.5 221.534C5.5 221.134 4.16667 219.034 3.5 218.034L3 213.534L4 205.534L3.5 202.034L6.5 199.534L11.5 200.034L17 200.534L21 198.534L25 193.534L29.5 192.534L34 188.034C33.8333 186.367 33.5 182.934 33.5 182.534V176.534C34.3333 175.367 36 172.934 36 172.534C36 172.134 38 169.701 39 168.534L42 163.034C42.6667 162.201 44.1 160.434 44.5 160.034C44.9 159.634 45.6667 155.201 46 153.034C46.6667 151.701 48 148.934 48 148.534C48 148.134 48.6667 146.034 49 145.034L47.5 140.034L46.5 135.534L45 132.534L46.5 130.034C47.8333 130.367 50.6 131.034 51 131.034C51.4 131.034 53.8333 131.701 55 132.034L61 131.034L63 127.534V123.034L65 119.034C65.5 117.867 66.5 115.434 66.5 115.034C66.5 114.534 67.5 111.034 67 110.534C66.6 110.134 64.8333 108.034 64 107.034C63 105.367 61 101.934 61 101.534C61 101.134 58.6667 99.7007 57.5 99.034L54.5 95.534L51 95.034L48 97.534C46.3333 98.2007 43 99.634 43 100.034C43 100.434 39 102.201 37 103.034L34.5 104.034L32 102.034L30.5 97.034L30 94.534L30.5 87.534L26 82.534C24.5 82.3674 21.4 82.034 21 82.034C20.6 82.034 17.8333 81.034 16.5 80.534H12L9 74.034C7.85584 72.1748 5.80348 68.7937 5.4969 68.1245C5.21855 68.0414 4.14179 67.4191 3.5 67.034L0.5 60.534V54.534L2 51.034L6 46.534L2.5 41.034L11.5 33.034L13 26.534L19.5 24.034C20 23.2006 21.1 21.534 21.5 21.534C21.9 21.534 28.6667 20.8673 32 20.534L33.5 22.034L34 25.534L38 27.534C39.3333 27.3673 42.1 27.034 42.5 27.034C43 27.034 49.5 26.534 49.5 27.034C49.5 27.434 52.5 27.2006 54 27.034L58 25.034L60 21.534L61 17.534L58.5 13.534L57 12.534L56.5 5.03395C58.3333 3.36728 62.1 0.133951 62.5 0.533951C62.9 0.933951 66.6667 3.70077 68.5 5.03418L72.5 9.03418C74.1667 9.53418 77.6 10.5342 78 10.5342C78.5 10.5342 83.5 12.0342 84 12.0342C84.4 12.0342 86.5 14.3675 87.5 15.5342L87 21.0342C87.6667 21.5342 89.2 22.6342 90 23.0342C90.8 23.4342 92.3333 29.5342 93 32.5342L95 37.0342L100.5 38.5342L97.5 55.0342L111 55.5342L113.5 68.0342L123 66.0342L130.5 79.5342L147.5 77.5342L149 81.5342L164.5 85.0342L165 90.5342L177 93.0342L176 104.034L188.5 100.534L195 106.534L201 113.534L196 118.034L191 122.034L191.5 129.534V136.534L187 141.034L180 144.034L171.5 145.034H164.5L159.5 144.034L155.5 146.034L155 150.034L150.5 154.534L149 158.534L150.5 168.034C151.667 169.534 154.1 172.634 154.5 173.034C154.9 173.434 159.667 174.868 162 175.534L167.5 177.534L173.5 181.034L180 183.534L189 183.034L194 182.034L198.5 187.034L202 197.534C204 200.868 208.1 207.634 208.5 208.034C209 208.534 217 217.534 217.5 218.034C218 218.534 223 225.534 223.5 226.034C224 226.534 227.5 226.534 228.5 228.034C229.3 229.234 234.167 232.534 236.5 234.034L247.5 236.034L255.5 233.534L259 228.034L262 225.034L266 223.034H269L273 220.534C273.333 219.868 274.2 218.534 275 218.534H277L279.5 222.034L280 227.534L278.5 232.034L280 237.034C281.667 238.201 285.1 240.634 285.5 241.034C285.9 241.434 288.333 241.868 289.5 242.034C290.333 241.868 292.1 241.534 292.5 241.534H296.5C296.9 241.534 299.667 240.868 301 240.534C301.833 240.701 303.6 241.034 304 241.034C304.4 241.034 306.833 242.368 308 243.034L312 242.034L316 242.534L319.5 244.034L323.5 244.534L327.5 242.034L330 239.034C331.5 238.701 334.6 238.034 335 238.034C335.4 238.034 337.5 237.034 338.5 236.534L341.5 234.534C342.333 234.368 344.2 234.134 345 234.534C345.8 234.934 347 236.368 347.5 237.034V239.034C347.5 239.434 346.5 242.201 346 243.534C345.833 244.701 345.5 247.134 345.5 247.534C345.5 247.934 345.833 251.034 346 252.534C345.667 253.034 345 254.234 345 255.034V258.034L346 262.034L347.5 265.034C347.667 266.534 348 269.634 348 270.034C348 270.434 348.333 272.868 348.5 274.034C349.333 275.368 351 278.134 351 278.534C351 279.034 352 283.034 352 284.034C352 284.834 354.333 287.368 355.5 288.534L356 295.034C356.5 297.201 357.6 301.534 358 301.534C358.4 301.534 360.5 302.534 361.5 303.034L365.5 300.534L367 297.534L368 294.034L369 291.534L370 289.034L373 288.534L376.5 290.034L379 293.034L382.5 296.534L388 298.534H393L406 287.034H409L412 288.034L414.5 286.534L417 283.034V278.534L414.5 271.534L412.5 267.534L411 260.534L410 254.034C410.333 252.868 411 250.434 411 250.034C411 249.634 411.333 242.534 411.5 239.034L409.5 237.534L406 236.034L402 234.534L397.5 231.534V227.534L401.5 221.534Z" fill="#BE1111" fill-opacity="0.5" stroke="black"/>
</svg>
