<svg width="127" height="219" viewBox="0 0 127 219" fill="none" xmlns="http://www.w3.org/2000/svg">
<path d="M117.154 11.1768L113.154 5.17676L112.154 4.67676L98.6543 3.17676L97.1543 0.676758L90.1543 4.67676H85.1543L73.1543 7.17676L71.6543 19.1768L66.6543 21.1768L57.6543 15.6768L46.6543 16.1768L45.6543 7.17676H36.1543L32.1543 14.1768L33.1543 19.1768L28.1543 30.1768C30.321 31.8434 34.6543 35.2768 34.6543 35.6768V43.1768L33.1543 51.1768C32.9876 52.6768 32.6543 55.7768 32.6543 56.1768C32.6543 56.5768 29.6543 58.3434 28.1543 59.1768L28.6543 65.6768L16.1543 73.6768L16.1539 77.1768C10.3206 77.6768 -0.946058 79.2768 0.653942 81.6768C2.25394 84.0768 1.98728 88.3434 1.65394 90.1768L19.6539 94.6768L21.6539 107.677L34.1539 106.177L26.1539 121.677L32.1539 125.677L33.1539 132.677L41.6539 136.677V146.677L49.1539 153.177L48.1539 161.677L61.1539 168.677L46.1539 174.677L41.6539 204.677L58.1539 216.677L62.1539 215.177L70.1539 217.677L82.6539 208.677L82.1539 199.677C83.4873 197.677 86.1539 193.577 86.1539 193.177C86.1539 192.777 90.8206 189.343 93.1539 187.677H97.6539L103.654 181.677C104.154 181.177 112.154 177.677 112.654 177.177C113.054 176.777 111.487 172.343 110.654 170.177L104.654 165.177C102.987 162.677 99.6539 157.577 99.6539 157.177C99.6539 156.677 97.6539 149.177 97.6539 148.177C97.6539 147.377 98.9873 136.51 99.6539 131.177L105.654 122.677L112.654 119.677H119.154L122.154 116.677L119.154 110.677L112.154 103.677C111.754 103.277 109.654 100.51 108.654 99.1768L110.654 84.1768L107.154 79.6768L103.154 78.6768L100.654 72.1768L98.6539 63.1768C97.3206 61.6768 94.5539 58.5768 94.1539 58.1768C93.7539 57.7768 92.9873 54.3434 92.6539 52.6768L98.6539 43.1768L100.654 36.6768L106.654 31.1768L119.654 29.6768L126.154 24.1768V15.6768L117.154 11.1768Z" fill="#BE1111" fill-opacity="0.5" stroke="black"/>
</svg>
