<svg width="89" height="135" viewBox="0 0 89 135" fill="none" xmlns="http://www.w3.org/2000/svg">
<path d="M55.5439 124.056L59.0439 130.056L67.4731 133.527L78.0439 122.056L79.0439 117.556L85.5439 112.556V102.056L80.0439 99.5562L80.5439 88.5562L74.0439 84.5562V79.5562L88.0439 75.0562L81.5439 64.5562L84.0439 59.5562L80.5439 50.0562L81.0439 45.0562L72.5439 37.5562L68.0439 28.5562L62.5439 26.5562L57.0439 25.5562L53.5439 28.5562H46.0439L43.5439 24.0562L44.0439 16.5562L43.5439 10.5562L33.0439 14.5562L22.5439 9.55615L16.5439 0.556152L11.5439 1.55615L9.54395 7.05615L0.543945 8.55615L1.04395 13.5562L3.54395 17.0562L4.54395 22.5562L6.04395 29.0562L9.04395 37.5562C8.71061 39.3895 7.94395 43.1562 7.54395 43.5562C7.14395 43.9562 6.71061 47.0562 6.54395 48.5562L8.04395 53.0562L14.5439 54.0562L27.5439 69.0562L28.0439 74.5562L29.5439 78.0562L35.0439 80.5562L42.5439 88.0562L43.0439 96.5562L44.5439 107.556L47.0439 113.556L56.5439 119.556L55.5439 124.056Z" fill="#BE1111" fill-opacity="0.5"/>
<path d="M67.5439 133.556L67.4731 133.527M67.4731 133.527L59.0439 130.056L55.5439 124.056L56.5439 119.556L47.0439 113.556L44.5439 107.556L43.0439 96.5562L42.5439 88.0562L35.0439 80.5562L29.5439 78.0562L28.0439 74.5562L27.5439 69.0562L14.5439 54.0562L8.04395 53.0562L6.54395 48.5562C6.71061 47.0562 7.14395 43.9562 7.54395 43.5562C7.94395 43.1562 8.71061 39.3895 9.04395 37.5562L6.04395 29.0562L4.54395 22.5562L3.54395 17.0562L1.04395 13.5562L0.543945 8.55615L9.54395 7.05615L11.5439 1.55615L16.5439 0.556152L22.5439 9.55615L33.0439 14.5562L43.5439 10.5562L44.0439 16.5562L43.5439 24.0562L46.0439 28.5562H53.5439L57.0439 25.5562L62.5439 26.5562L68.0439 28.5562L72.5439 37.5562L81.0439 45.0562L80.5439 50.0562L84.0439 59.5562L81.5439 64.5562L88.0439 75.0562L74.0439 79.5562V84.5562L80.5439 88.5562L80.0439 99.5562L85.5439 102.056V112.556L79.0439 117.556L78.0439 122.056L67.4731 133.527Z" stroke="black"/>
</svg>
