<svg width="299" height="241" viewBox="0 0 299 241" fill="none" xmlns="http://www.w3.org/2000/svg">
<path d="M222.543 222.529L226.543 215.029L222.543 211.529L219.543 211.029L215.543 209.029L213.043 204.029L214.043 197.529V186.029L221.543 174.029L226.543 175.029L236.543 169.529L237.043 164.029L250.043 160.029L249.043 155.029L252.543 146.529L263.543 134.529L265.043 124.529L278.043 122.029H285.043L287.043 111.529L296.043 111.029L297.543 109.029V104.029L296.043 101.529L292.043 98.0293L287.543 96.0293L289.043 83.0293L283.543 80.5293L280.543 76.0293L269.043 72.5293V64.0293L262.043 55.5293L251.543 54.5293L246.043 48.5293L244.043 49.0293L233.543 43.5293L235.043 34.0293L229.043 28.0293L227.043 27.5293L221.543 16.5293L215.043 15.0293L205.043 21.0293L193.043 5.0293L185.043 7.5293L180.043 8.0293L173.043 7.0293L170.543 8.0293L165.043 10.5293L161.543 8.0293L156.543 4.0293L154.38 2.79627L154.043 8.5293L154.543 12.5293L154.043 17.5293L152.543 20.0293H148.543L147.043 22.0293L143.543 24.5293L139.043 26.0293L135.043 29.5293L130.043 30.5293L127.543 35.0293C126.043 35.3626 122.943 36.0293 122.543 36.0293C122.143 36.0293 119.71 38.696 118.543 40.0293L114.543 42.0293L109.043 46.5293L105.043 46.0293L101.543 45.0293H97.543L92.543 43.0293L88.543 41.0293L90.043 39.0293L93.043 36.0293L97.043 35.5293L98.543 32.5293L99.043 29.5293L97.543 26.0293L94.543 25.0293C93.2096 25.696 90.443 27.1293 90.043 27.5293C89.643 27.9293 88.8763 30.0293 88.543 31.0293L83.043 32.5293C81.7096 33.5293 78.943 35.5293 78.543 35.5293C78.143 35.5293 74.3763 35.196 72.543 35.0293L64.543 37.0293L52.043 37.5293L44.543 32.5293C43.043 31.3626 40.043 28.9293 40.043 28.5293C40.043 28.1293 38.3763 25.696 37.543 24.5293L39.043 20.5293L40.543 12.5293L39.043 7.0293L33.543 4.0293L26.543 5.0293L21.043 6.0293L16.043 9.0293L14.043 13.5293L16.543 17.5293L20.543 21.0293L22.043 27.0293L19.043 31.5293L12.043 33.0293L5.54297 33.5293L1.54297 36.0293L0.542969 41.0293C1.70964 42.196 4.04297 44.6293 4.04297 45.0293C4.04297 45.4293 4.3763 48.5293 4.54297 50.0293L8.04297 54.0293L17.043 52.0293L19.543 46.5293L24.043 45.5293L30.543 55.0293L40.543 59.5293L51.043 55.5293L51.543 61.0293L51.043 70.5293L53.543 73.5293C56.043 73.696 61.143 73.9293 61.543 73.5293C61.943 73.1293 64.043 71.3626 65.043 70.5293L70.043 71.0293L76.043 74.0293L80.543 83.0293L88.543 90.0293L88.043 95.0293C89.2096 98.0293 91.543 104.129 91.543 104.529C91.543 104.929 89.8763 108.029 89.043 109.529L95.543 120.029L92.043 121.029L81.043 124.529C81.2096 125.863 81.543 128.629 81.543 129.029C81.543 129.429 85.8763 132.196 88.043 133.529L87.543 145.029L93.043 147.029V157.529L86.543 162.529L85.543 167.029L74.543 178.529L78.043 182.029L77.543 188.529C77.7096 190.029 78.143 193.129 78.543 193.529C78.943 193.929 80.3763 195.029 81.043 195.529L85.543 196.529L89.043 198.029L94.043 200.029L97.043 199.029L107.543 198.529L111.043 199.529L113.543 203.529L112.543 206.529L109.043 210.029C108.643 210.429 105.543 211.863 104.043 212.529L102.543 215.529L105.043 220.029L112.043 225.529L117.043 226.029L122.043 230.529L128.543 237.029C130.043 237.363 133.143 238.029 133.543 238.029C133.943 238.029 137.043 237.029 138.543 236.529L142.543 232.029L146.043 223.529L149.043 219.529L152.543 219.029L158.043 223.029L163.043 224.029L168.043 226.029L174.543 227.529L179.543 226.529L182.543 225.029L181.543 217.529L179.543 211.029L183.043 209.029L187.543 210.029L197.043 229.029L210.543 239.529L215.543 233.029L213.543 226.529L215.043 223.529L222.543 222.529Z" fill="#BE1111" fill-opacity="0.5"/>
<path d="M154.543 0.0292969L154.38 2.79627M154.38 2.79627L154.043 8.5293L154.543 12.5293L154.043 17.5293L152.543 20.0293H148.543L147.043 22.0293L143.543 24.5293L139.043 26.0293L135.043 29.5293L130.043 30.5293L127.543 35.0293C126.043 35.3626 122.943 36.0293 122.543 36.0293C122.143 36.0293 119.71 38.696 118.543 40.0293L114.543 42.0293L109.043 46.5293L105.043 46.0293L101.543 45.0293H97.543L92.543 43.0293L88.543 41.0293L90.043 39.0293L93.043 36.0293L97.043 35.5293L98.543 32.5293L99.043 29.5293L97.543 26.0293L94.543 25.0293C93.2096 25.696 90.443 27.1293 90.043 27.5293C89.643 27.9293 88.8763 30.0293 88.543 31.0293L83.043 32.5293C81.7096 33.5293 78.943 35.5293 78.543 35.5293C78.143 35.5293 74.3763 35.196 72.543 35.0293L64.543 37.0293L52.043 37.5293L44.543 32.5293C43.043 31.3626 40.043 28.9293 40.043 28.5293C40.043 28.1293 38.3763 25.696 37.543 24.5293L39.043 20.5293L40.543 12.5293L39.043 7.0293L33.543 4.0293L26.543 5.0293L21.043 6.0293L16.043 9.0293L14.043 13.5293L16.543 17.5293L20.543 21.0293L22.043 27.0293L19.043 31.5293L12.043 33.0293L5.54297 33.5293L1.54297 36.0293L0.542969 41.0293C1.70964 42.196 4.04297 44.6293 4.04297 45.0293C4.04297 45.4293 4.3763 48.5293 4.54297 50.0293L8.04297 54.0293L17.043 52.0293L19.543 46.5293L24.043 45.5293L30.543 55.0293L40.543 59.5293L51.043 55.5293L51.543 61.0293L51.043 70.5293L53.543 73.5293C56.043 73.696 61.143 73.9293 61.543 73.5293C61.943 73.1293 64.043 71.3626 65.043 70.5293L70.043 71.0293L76.043 74.0293L80.543 83.0293L88.543 90.0293L88.043 95.0293C89.2096 98.0293 91.543 104.129 91.543 104.529C91.543 104.929 89.8763 108.029 89.043 109.529L95.543 120.029L92.043 121.029L81.043 124.529C81.2096 125.863 81.543 128.629 81.543 129.029C81.543 129.429 85.8763 132.196 88.043 133.529L87.543 145.029L93.043 147.029V157.529L86.543 162.529L85.543 167.029L74.543 178.529L78.043 182.029L77.543 188.529C77.7096 190.029 78.143 193.129 78.543 193.529C78.943 193.929 80.3763 195.029 81.043 195.529L85.543 196.529L89.043 198.029L94.043 200.029L97.043 199.029L107.543 198.529L111.043 199.529L113.543 203.529L112.543 206.529C111.543 207.529 109.443 209.629 109.043 210.029C108.643 210.429 105.543 211.863 104.043 212.529L102.543 215.529L105.043 220.029L112.043 225.529L117.043 226.029L122.043 230.529L128.543 237.029C130.043 237.363 133.143 238.029 133.543 238.029C133.943 238.029 137.043 237.029 138.543 236.529L142.543 232.029L146.043 223.529L149.043 219.529L152.543 219.029L158.043 223.029L163.043 224.029L168.043 226.029L174.543 227.529L179.543 226.529L182.543 225.029L181.543 217.529L179.543 211.029L183.043 209.029L187.543 210.029L197.043 229.029L210.543 239.529L215.543 233.029L213.543 226.529L215.043 223.529L222.543 222.529L226.543 215.029L222.543 211.529L219.543 211.029L215.543 209.029L213.043 204.029L214.043 197.529V186.029L221.543 174.029L226.543 175.029L236.543 169.529L237.043 164.029L250.043 160.029L249.043 155.029L252.543 146.529L263.543 134.529L265.043 124.529L278.043 122.029H285.043L287.043 111.529L296.043 111.029L297.543 109.029V104.029L296.043 101.529L292.043 98.0293L287.543 96.0293L289.043 83.0293L283.543 80.5293L280.543 76.0293L269.043 72.5293V64.0293L262.043 55.5293L251.543 54.5293L246.043 48.5293L244.043 49.0293L233.543 43.5293L235.043 34.0293L229.043 28.0293L227.043 27.5293L221.543 16.5293L215.043 15.0293L205.043 21.0293L193.043 5.0293L185.043 7.5293L180.043 8.0293L173.043 7.0293L170.543 8.0293L165.043 10.5293L161.543 8.0293L156.543 4.0293L154.38 2.79627Z" stroke="black"/>
</svg>
